<svg id="App_Icon_Kit_A" data-name="App Icon Kit A" xmlns="http://www.w3.org/2000/svg" viewBox="0 0 1024.4 1024.37"><defs><style>.cls-1{fill:#0d2338;}.cls-2{fill:#59ca3b;}.cls-3{fill:#df9e5d;}.cls-4{fill:#9ec7df;}</style></defs><g id="App_Icon_and_Badge_-_Main" data-name="App Icon and Badge - Main"><path class="cls-1" d="M1024.2,259.39V764.26c0,123-85.57,226.09-200.43,252.91a259.65,259.65,0,0,1-59.34,6.83H259.56A259.72,259.72,0,0,1-.2,764.26V259.39C-.2,115.92,116.09-.37,259.56-.37H764.43C907.88-.37,1024.2,115.92,1024.2,259.39Z" transform="translate(0.2 0.37)"/><path class="cls-2" d="M859.55,822.78q-.81-2.56-1.84-5A14,14,0,0,1,859.55,822.78Z" transform="translate(0.2 0.37)"/><path class="cls-2" d="M887,519.13c-5.47,78.67-32.91,139-67.68,181.1,0,0,43.91,54.87,9.16,84.14,0,0,20.46,12.6,29.25,33.4-2.61-4.49-8.89-10.06-23.78-7.78,0,0,14.64,16.45,1.85,51.21,0,0,38.41,14.63,18.29,78.66a651.07,651.07,0,0,1-30.3,77.31,259.65,259.65,0,0,1-59.34,6.83H259.56A259.38,259.38,0,0,1,46.26,912.52C61.1,864,84,829.29,109.55,808.15c0,0,5.51-131.69,73.17-181.08v-23.8l12.82-10.95S169.92,374.62,374.8,297.8c0,0,45.73-58.55,166.46-51.23,73.28,4.45,134.44,9.55,185.1,39.91q7.78,4.65,15.26,10.17c17.68,13,34,29.72,49,51.3,5,7.12,9.78,14.76,14.44,23q3.54,6.19,7,12.82S892.48,440.47,887,519.13Z" transform="translate(0.2 0.37)"/><path class="cls-2" d="M805.05,370.94a295.56,295.56,0,0,1-7.68,45.75s-73.19,287.2-11-40.22q2.72-14.42,4.22-28.52C805.94,203.54,727.49,81.7,655.29-.37h46.49C778.53,104.77,815.49,260,805.05,370.94Z" transform="translate(0.2 0.37)"/><path class="cls-2" d="M748,332.55s0,320.11-20.14-29.27q-.48-8.55-1.48-16.8C705.12,105.82,515.57,31.41,389.21-.37H501.94c138.52,56.58,215.24,189.23,239.68,297C744.42,309,746.53,321,748,332.55Z" transform="translate(0.2 0.37)"/><path class="cls-1" d="M449.8,482.55c36.58-12.8,47.56-73.17,40.24-84.14s-31.1-5.49-40.24,32.92S449.8,482.55,449.8,482.55Z" transform="translate(0.2 0.37)"/><path class="cls-1" d="M813.82,652.36c31.1-14.32,40.24-83.83,29.27-71s-11,24.1-20.12,47.56Z" transform="translate(0.2 0.37)"/><path class="cls-3" d="M545.32,753.28C656.5,751.45,704.06,741.67,737,652.36S667.48,473.41,619.92,511.82s-36.59,168.29-36.59,168.29Z" transform="translate(0.2 0.37)"/><path class="cls-4" d="M612.6,553.89c-22-80.48-25.61-85.07,0-87.35s64-35.21,118.9,58.08,7.32,8.58,7.32,8.58,60.37,17,54.88,57.28,20.12,56.7-31.1,43.9-32.93-1.83-47.56-43.9c0,0-25.61-6.79-62.19-10.71S612.6,553.89,612.6,553.89Z" transform="translate(0.2 0.37)"/></g></svg>